<mxfile host="65bd71144e">
    <diagram id="C5RBs43oDa-KdzZeNtuy" name="Page-1">
        <mxGraphModel dx="2321" dy="1800" grid="1" gridSize="10" guides="1" tooltips="1" connect="1" arrows="1" fold="1" page="1" pageScale="1" pageWidth="827" pageHeight="1169" math="0" shadow="0">
            <root>
                <mxCell id="WIyWlLk6GJQsqaUBKTNV-0"/>
                <mxCell id="WIyWlLk6GJQsqaUBKTNV-1" parent="WIyWlLk6GJQsqaUBKTNV-0"/>
                <mxCell id="IHnfN8DX3xTCwppa76Wx-4" value="" style="rounded=0;whiteSpace=wrap;html=1;" parent="WIyWlLk6GJQsqaUBKTNV-1" vertex="1">
                    <mxGeometry x="80" width="1000" height="200" as="geometry"/>
                </mxCell>
                <mxCell id="IHnfN8DX3xTCwppa76Wx-3" value="コレクション" style="rounded=0;whiteSpace=wrap;html=1;" parent="WIyWlLk6GJQsqaUBKTNV-1" vertex="1">
                    <mxGeometry x="925" y="80" width="120" height="60" as="geometry"/>
                </mxCell>
                <mxCell id="IHnfN8DX3xTCwppa76Wx-2" value="ログイン" style="rounded=0;whiteSpace=wrap;html=1;" parent="WIyWlLk6GJQsqaUBKTNV-1" vertex="1">
                    <mxGeometry x="600" y="80" width="120" height="60" as="geometry"/>
                </mxCell>
                <mxCell id="IHnfN8DX3xTCwppa76Wx-1" value="サインアップ" style="rounded=0;whiteSpace=wrap;html=1;" parent="WIyWlLk6GJQsqaUBKTNV-1" vertex="1">
                    <mxGeometry x="440" y="80" width="120" height="60" as="geometry"/>
                </mxCell>
                <mxCell id="IHnfN8DX3xTCwppa76Wx-0" value="ホーム画面" style="rounded=0;whiteSpace=wrap;html=1;" parent="WIyWlLk6GJQsqaUBKTNV-1" vertex="1">
                    <mxGeometry x="120" y="80" width="120" height="60" as="geometry"/>
                </mxCell>
                <mxCell id="IHnfN8DX3xTCwppa76Wx-5" value="フロントエンド" style="rounded=0;whiteSpace=wrap;html=1;" parent="WIyWlLk6GJQsqaUBKTNV-1" vertex="1">
                    <mxGeometry x="520" y="10" width="120" height="60" as="geometry"/>
                </mxCell>
                <mxCell id="IHnfN8DX3xTCwppa76Wx-6" value="" style="rounded=0;whiteSpace=wrap;html=1;" parent="WIyWlLk6GJQsqaUBKTNV-1" vertex="1">
                    <mxGeometry x="-30" y="440" width="1270" height="200" as="geometry"/>
                </mxCell>
                <mxCell id="IHnfN8DX3xTCwppa76Wx-7" value="http://127.0.0.1:5000/&lt;div&gt;collection/get&lt;/div&gt;" style="rounded=0;whiteSpace=wrap;html=1;" parent="WIyWlLk6GJQsqaUBKTNV-1" vertex="1">
                    <mxGeometry x="1050" y="500" width="170" height="60" as="geometry"/>
                </mxCell>
                <mxCell id="IHnfN8DX3xTCwppa76Wx-8" value="http://127.0.0.1:5000/login" style="rounded=0;whiteSpace=wrap;html=1;" parent="WIyWlLk6GJQsqaUBKTNV-1" vertex="1">
                    <mxGeometry x="710" y="500" width="150" height="60" as="geometry"/>
                </mxCell>
                <mxCell id="IHnfN8DX3xTCwppa76Wx-9" value="http://127.0.0.1:5000/register" style="rounded=0;whiteSpace=wrap;html=1;" parent="WIyWlLk6GJQsqaUBKTNV-1" vertex="1">
                    <mxGeometry x="530" y="500" width="160" height="60" as="geometry"/>
                </mxCell>
                <mxCell id="IHnfN8DX3xTCwppa76Wx-10" value="http://127.0.0.1:5000/gemini" style="rounded=0;whiteSpace=wrap;html=1;" parent="WIyWlLk6GJQsqaUBKTNV-1" vertex="1">
                    <mxGeometry x="-10" y="500" width="160" height="60" as="geometry"/>
                </mxCell>
                <mxCell id="IHnfN8DX3xTCwppa76Wx-11" value="バックエンド" style="rounded=0;whiteSpace=wrap;html=1;" parent="WIyWlLk6GJQsqaUBKTNV-1" vertex="1">
                    <mxGeometry x="520" y="570" width="120" height="60" as="geometry"/>
                </mxCell>
                <mxCell id="IHnfN8DX3xTCwppa76Wx-13" value="ログアウト" style="rounded=0;whiteSpace=wrap;html=1;" parent="WIyWlLk6GJQsqaUBKTNV-1" vertex="1">
                    <mxGeometry x="760" y="80" width="120" height="60" as="geometry"/>
                </mxCell>
                <mxCell id="IHnfN8DX3xTCwppa76Wx-16" value="http://127.0.0.1:5000/logout" style="rounded=0;whiteSpace=wrap;html=1;" parent="WIyWlLk6GJQsqaUBKTNV-1" vertex="1">
                    <mxGeometry x="880" y="500" width="150" height="60" as="geometry"/>
                </mxCell>
                <mxCell id="IHnfN8DX3xTCwppa76Wx-19" value="出力画面" style="rounded=0;whiteSpace=wrap;html=1;" parent="WIyWlLk6GJQsqaUBKTNV-1" vertex="1">
                    <mxGeometry x="280" y="80" width="120" height="60" as="geometry"/>
                </mxCell>
                <mxCell id="IHnfN8DX3xTCwppa76Wx-20" value="http://127.0.0.1:5000/&lt;div&gt;collction/save&lt;/div&gt;" style="rounded=0;whiteSpace=wrap;html=1;" parent="WIyWlLk6GJQsqaUBKTNV-1" vertex="1">
                    <mxGeometry x="170" y="500" width="160" height="60" as="geometry"/>
                </mxCell>
                <mxCell id="IHnfN8DX3xTCwppa76Wx-21" value="http://127.0.0.1:5000/&lt;div&gt;collction/delete&lt;/div&gt;" style="rounded=0;whiteSpace=wrap;html=1;" parent="WIyWlLk6GJQsqaUBKTNV-1" vertex="1">
                    <mxGeometry x="350" y="500" width="160" height="60" as="geometry"/>
                </mxCell>
                <mxCell id="IHnfN8DX3xTCwppa76Wx-23" value="" style="endArrow=classic;html=1;rounded=0;exitX=0.5;exitY=1;exitDx=0;exitDy=0;entryX=0.5;entryY=0;entryDx=0;entryDy=0;" parent="WIyWlLk6GJQsqaUBKTNV-1" source="IHnfN8DX3xTCwppa76Wx-0" target="IHnfN8DX3xTCwppa76Wx-10" edge="1">
                    <mxGeometry width="50" height="50" relative="1" as="geometry">
                        <mxPoint x="500" y="370" as="sourcePoint"/>
                        <mxPoint x="550" y="320" as="targetPoint"/>
                    </mxGeometry>
                </mxCell>
                <mxCell id="IHnfN8DX3xTCwppa76Wx-24" value="1" style="rounded=0;whiteSpace=wrap;html=1;" parent="WIyWlLk6GJQsqaUBKTNV-1" vertex="1">
                    <mxGeometry x="90" y="290" width="80" height="30" as="geometry"/>
                </mxCell>
                <mxCell id="IHnfN8DX3xTCwppa76Wx-25" value="" style="endArrow=classic;html=1;rounded=0;entryX=0.25;entryY=1;entryDx=0;entryDy=0;exitX=0.5;exitY=0;exitDx=0;exitDy=0;" parent="WIyWlLk6GJQsqaUBKTNV-1" source="IHnfN8DX3xTCwppa76Wx-10" target="IHnfN8DX3xTCwppa76Wx-19" edge="1">
                    <mxGeometry width="50" height="50" relative="1" as="geometry">
                        <mxPoint x="500" y="370" as="sourcePoint"/>
                        <mxPoint x="550" y="320" as="targetPoint"/>
                    </mxGeometry>
                </mxCell>
                <mxCell id="IHnfN8DX3xTCwppa76Wx-26" value="2" style="rounded=0;whiteSpace=wrap;html=1;" parent="WIyWlLk6GJQsqaUBKTNV-1" vertex="1">
                    <mxGeometry x="180" y="260" width="80" height="30" as="geometry"/>
                </mxCell>
                <mxCell id="IHnfN8DX3xTCwppa76Wx-27" value="save?" style="rhombus;whiteSpace=wrap;html=1;" parent="WIyWlLk6GJQsqaUBKTNV-1" vertex="1">
                    <mxGeometry x="300" y="285" width="80" height="40" as="geometry"/>
                </mxCell>
                <mxCell id="IHnfN8DX3xTCwppa76Wx-28" value="" style="endArrow=classic;html=1;rounded=0;exitX=0.5;exitY=1;exitDx=0;exitDy=0;entryX=0.5;entryY=0;entryDx=0;entryDy=0;" parent="WIyWlLk6GJQsqaUBKTNV-1" source="IHnfN8DX3xTCwppa76Wx-19" target="IHnfN8DX3xTCwppa76Wx-27" edge="1">
                    <mxGeometry width="50" height="50" relative="1" as="geometry">
                        <mxPoint x="500" y="370" as="sourcePoint"/>
                        <mxPoint x="550" y="320" as="targetPoint"/>
                    </mxGeometry>
                </mxCell>
                <mxCell id="IHnfN8DX3xTCwppa76Wx-29" value="" style="endArrow=classic;html=1;rounded=0;exitX=0.5;exitY=1;exitDx=0;exitDy=0;entryX=0.5;entryY=0;entryDx=0;entryDy=0;" parent="WIyWlLk6GJQsqaUBKTNV-1" source="IHnfN8DX3xTCwppa76Wx-27" target="IHnfN8DX3xTCwppa76Wx-20" edge="1">
                    <mxGeometry width="50" height="50" relative="1" as="geometry">
                        <mxPoint x="500" y="370" as="sourcePoint"/>
                        <mxPoint x="550" y="320" as="targetPoint"/>
                    </mxGeometry>
                </mxCell>
                <mxCell id="IHnfN8DX3xTCwppa76Wx-30" value="" style="endArrow=classic;html=1;rounded=0;entryX=0.5;entryY=0;entryDx=0;entryDy=0;" parent="WIyWlLk6GJQsqaUBKTNV-1" target="IHnfN8DX3xTCwppa76Wx-21" edge="1">
                    <mxGeometry width="50" height="50" relative="1" as="geometry">
                        <mxPoint x="340" y="330" as="sourcePoint"/>
                        <mxPoint x="550" y="320" as="targetPoint"/>
                    </mxGeometry>
                </mxCell>
                <mxCell id="IHnfN8DX3xTCwppa76Wx-31" value="YES" style="text;html=1;align=center;verticalAlign=middle;whiteSpace=wrap;rounded=0;" parent="WIyWlLk6GJQsqaUBKTNV-1" vertex="1">
                    <mxGeometry x="280" y="320" width="60" height="30" as="geometry"/>
                </mxCell>
                <mxCell id="IHnfN8DX3xTCwppa76Wx-33" value="NO" style="text;html=1;align=center;verticalAlign=middle;whiteSpace=wrap;rounded=0;" parent="WIyWlLk6GJQsqaUBKTNV-1" vertex="1">
                    <mxGeometry x="340" y="320" width="60" height="30" as="geometry"/>
                </mxCell>
                <mxCell id="IHnfN8DX3xTCwppa76Wx-34" value="3" style="rounded=0;whiteSpace=wrap;html=1;" parent="WIyWlLk6GJQsqaUBKTNV-1" vertex="1">
                    <mxGeometry x="260" y="370" width="80" height="30" as="geometry"/>
                </mxCell>
                <mxCell id="IHnfN8DX3xTCwppa76Wx-35" value="4" style="rounded=0;whiteSpace=wrap;html=1;" parent="WIyWlLk6GJQsqaUBKTNV-1" vertex="1">
                    <mxGeometry x="350" y="400" width="80" height="30" as="geometry"/>
                </mxCell>
                <mxCell id="IHnfN8DX3xTCwppa76Wx-36" value="" style="endArrow=classic;html=1;rounded=0;exitX=0.25;exitY=1;exitDx=0;exitDy=0;entryX=0.25;entryY=0;entryDx=0;entryDy=0;" parent="WIyWlLk6GJQsqaUBKTNV-1" source="IHnfN8DX3xTCwppa76Wx-1" target="IHnfN8DX3xTCwppa76Wx-9" edge="1">
                    <mxGeometry width="50" height="50" relative="1" as="geometry">
                        <mxPoint x="570" y="370" as="sourcePoint"/>
                        <mxPoint x="620" y="320" as="targetPoint"/>
                    </mxGeometry>
                </mxCell>
                <mxCell id="IHnfN8DX3xTCwppa76Wx-37" value="" style="endArrow=classic;html=1;rounded=0;exitX=0.25;exitY=1;exitDx=0;exitDy=0;entryX=0.25;entryY=0;entryDx=0;entryDy=0;" parent="WIyWlLk6GJQsqaUBKTNV-1" source="IHnfN8DX3xTCwppa76Wx-2" target="IHnfN8DX3xTCwppa76Wx-8" edge="1">
                    <mxGeometry width="50" height="50" relative="1" as="geometry">
                        <mxPoint x="635" y="140" as="sourcePoint"/>
                        <mxPoint x="760" y="500" as="targetPoint"/>
                    </mxGeometry>
                </mxCell>
                <mxCell id="IHnfN8DX3xTCwppa76Wx-38" value="" style="endArrow=classic;html=1;rounded=0;exitX=0.25;exitY=1;exitDx=0;exitDy=0;entryX=0.25;entryY=0;entryDx=0;entryDy=0;" parent="WIyWlLk6GJQsqaUBKTNV-1" source="IHnfN8DX3xTCwppa76Wx-13" target="IHnfN8DX3xTCwppa76Wx-16" edge="1">
                    <mxGeometry width="50" height="50" relative="1" as="geometry">
                        <mxPoint x="570" y="370" as="sourcePoint"/>
                        <mxPoint x="620" y="320" as="targetPoint"/>
                    </mxGeometry>
                </mxCell>
                <mxCell id="IHnfN8DX3xTCwppa76Wx-39" value="" style="endArrow=classic;html=1;rounded=0;entryX=0.25;entryY=0;entryDx=0;entryDy=0;exitX=0.25;exitY=1;exitDx=0;exitDy=0;" parent="WIyWlLk6GJQsqaUBKTNV-1" source="IHnfN8DX3xTCwppa76Wx-3" target="IHnfN8DX3xTCwppa76Wx-7" edge="1">
                    <mxGeometry width="50" height="50" relative="1" as="geometry">
                        <mxPoint x="570" y="370" as="sourcePoint"/>
                        <mxPoint x="620" y="320" as="targetPoint"/>
                    </mxGeometry>
                </mxCell>
                <mxCell id="IHnfN8DX3xTCwppa76Wx-40" value="5" style="rounded=0;whiteSpace=wrap;html=1;" parent="WIyWlLk6GJQsqaUBKTNV-1" vertex="1">
                    <mxGeometry x="480" y="290" width="80" height="30" as="geometry"/>
                </mxCell>
                <mxCell id="IHnfN8DX3xTCwppa76Wx-44" value="7" style="rounded=0;whiteSpace=wrap;html=1;" parent="WIyWlLk6GJQsqaUBKTNV-1" vertex="1">
                    <mxGeometry x="650" y="290" width="80" height="30" as="geometry"/>
                </mxCell>
                <mxCell id="IHnfN8DX3xTCwppa76Wx-46" value="" style="endArrow=classic;html=1;rounded=0;entryX=0.75;entryY=1;entryDx=0;entryDy=0;exitX=0.75;exitY=0;exitDx=0;exitDy=0;" parent="WIyWlLk6GJQsqaUBKTNV-1" source="IHnfN8DX3xTCwppa76Wx-9" target="IHnfN8DX3xTCwppa76Wx-1" edge="1">
                    <mxGeometry width="50" height="50" relative="1" as="geometry">
                        <mxPoint x="450" y="290" as="sourcePoint"/>
                        <mxPoint x="500" y="240" as="targetPoint"/>
                    </mxGeometry>
                </mxCell>
                <mxCell id="IHnfN8DX3xTCwppa76Wx-43" value="6" style="rounded=0;whiteSpace=wrap;html=1;" parent="WIyWlLk6GJQsqaUBKTNV-1" vertex="1">
                    <mxGeometry x="540" y="260" width="80" height="30" as="geometry"/>
                </mxCell>
                <mxCell id="IHnfN8DX3xTCwppa76Wx-47" value="" style="endArrow=classic;html=1;rounded=0;entryX=0.75;entryY=1;entryDx=0;entryDy=0;exitX=0.675;exitY=0.017;exitDx=0;exitDy=0;exitPerimeter=0;" parent="WIyWlLk6GJQsqaUBKTNV-1" source="IHnfN8DX3xTCwppa76Wx-8" target="IHnfN8DX3xTCwppa76Wx-2" edge="1">
                    <mxGeometry width="50" height="50" relative="1" as="geometry">
                        <mxPoint x="630" y="290" as="sourcePoint"/>
                        <mxPoint x="680" y="240" as="targetPoint"/>
                    </mxGeometry>
                </mxCell>
                <mxCell id="IHnfN8DX3xTCwppa76Wx-45" value="8" style="rounded=0;whiteSpace=wrap;html=1;" parent="WIyWlLk6GJQsqaUBKTNV-1" vertex="1">
                    <mxGeometry x="710" y="260" width="80" height="30" as="geometry"/>
                </mxCell>
                <mxCell id="IHnfN8DX3xTCwppa76Wx-48" value="" style="endArrow=classic;html=1;rounded=0;entryX=0.75;entryY=1;entryDx=0;entryDy=0;exitX=0.75;exitY=0;exitDx=0;exitDy=0;" parent="WIyWlLk6GJQsqaUBKTNV-1" source="IHnfN8DX3xTCwppa76Wx-16" target="IHnfN8DX3xTCwppa76Wx-13" edge="1">
                    <mxGeometry width="50" height="50" relative="1" as="geometry">
                        <mxPoint x="920" y="290" as="sourcePoint"/>
                        <mxPoint x="970" y="240" as="targetPoint"/>
                    </mxGeometry>
                </mxCell>
                <mxCell id="IHnfN8DX3xTCwppa76Wx-50" value="9" style="rounded=0;whiteSpace=wrap;html=1;" parent="WIyWlLk6GJQsqaUBKTNV-1" vertex="1">
                    <mxGeometry x="810" y="290" width="80" height="30" as="geometry"/>
                </mxCell>
                <mxCell id="IHnfN8DX3xTCwppa76Wx-51" value="10" style="rounded=0;whiteSpace=wrap;html=1;" parent="WIyWlLk6GJQsqaUBKTNV-1" vertex="1">
                    <mxGeometry x="870" y="260" width="80" height="30" as="geometry"/>
                </mxCell>
                <mxCell id="IHnfN8DX3xTCwppa76Wx-52" value="" style="endArrow=classic;html=1;rounded=0;entryX=0.75;entryY=1;entryDx=0;entryDy=0;exitX=0.75;exitY=0;exitDx=0;exitDy=0;" parent="WIyWlLk6GJQsqaUBKTNV-1" source="IHnfN8DX3xTCwppa76Wx-7" target="IHnfN8DX3xTCwppa76Wx-3" edge="1">
                    <mxGeometry width="50" height="50" relative="1" as="geometry">
                        <mxPoint x="890" y="290" as="sourcePoint"/>
                        <mxPoint x="940" y="240" as="targetPoint"/>
                    </mxGeometry>
                </mxCell>
                <mxCell id="IHnfN8DX3xTCwppa76Wx-53" value="11" style="rounded=0;whiteSpace=wrap;html=1;" parent="WIyWlLk6GJQsqaUBKTNV-1" vertex="1">
                    <mxGeometry x="980" y="290" width="80" height="30" as="geometry"/>
                </mxCell>
                <mxCell id="IHnfN8DX3xTCwppa76Wx-54" value="12" style="rounded=0;whiteSpace=wrap;html=1;" parent="WIyWlLk6GJQsqaUBKTNV-1" vertex="1">
                    <mxGeometry x="1040" y="260" width="80" height="30" as="geometry"/>
                </mxCell>
                <mxCell id="0" value="/pictures" style="rounded=0;whiteSpace=wrap;html=1;" vertex="1" parent="WIyWlLk6GJQsqaUBKTNV-1">
                    <mxGeometry x="-160" y="80" width="120" height="60" as="geometry"/>
                </mxCell>
                <mxCell id="1" value="" style="endArrow=classic;html=1;exitX=0.25;exitY=0;exitDx=0;exitDy=0;entryX=1;entryY=0.5;entryDx=0;entryDy=0;" edge="1" parent="WIyWlLk6GJQsqaUBKTNV-1" source="IHnfN8DX3xTCwppa76Wx-10" target="0">
                    <mxGeometry width="50" height="50" relative="1" as="geometry">
                        <mxPoint x="360" y="140" as="sourcePoint"/>
                        <mxPoint x="410" y="90" as="targetPoint"/>
                    </mxGeometry>
                </mxCell>
                <mxCell id="2" value="保存" style="text;html=1;align=center;verticalAlign=middle;whiteSpace=wrap;rounded=0;" vertex="1" parent="WIyWlLk6GJQsqaUBKTNV-1">
                    <mxGeometry x="-70" y="280" width="60" height="30" as="geometry"/>
                </mxCell>
                <mxCell id="4" value="" style="curved=1;endArrow=classic;html=1;exitX=0.5;exitY=0;exitDx=0;exitDy=0;entryX=0.5;entryY=0;entryDx=0;entryDy=0;" edge="1" parent="WIyWlLk6GJQsqaUBKTNV-1" source="0" target="IHnfN8DX3xTCwppa76Wx-19">
                    <mxGeometry width="50" height="50" relative="1" as="geometry">
                        <mxPoint x="320" y="190" as="sourcePoint"/>
                        <mxPoint x="370" y="140" as="targetPoint"/>
                        <Array as="points">
                            <mxPoint x="210" y="30"/>
                        </Array>
                    </mxGeometry>
                </mxCell>
                <mxCell id="5" value="" style="curved=1;endArrow=classic;html=1;entryX=0.5;entryY=0;entryDx=0;entryDy=0;" edge="1" parent="WIyWlLk6GJQsqaUBKTNV-1" target="IHnfN8DX3xTCwppa76Wx-3">
                    <mxGeometry width="50" height="50" relative="1" as="geometry">
                        <mxPoint x="-100" y="80" as="sourcePoint"/>
                        <mxPoint x="-40" y="220" as="targetPoint"/>
                        <Array as="points">
                            <mxPoint x="240" y="-160"/>
                        </Array>
                    </mxGeometry>
                </mxCell>
                <mxCell id="6" value="読み込み" style="text;html=1;align=center;verticalAlign=middle;whiteSpace=wrap;rounded=0;" vertex="1" parent="WIyWlLk6GJQsqaUBKTNV-1">
                    <mxGeometry x="320" y="-80" width="60" height="30" as="geometry"/>
                </mxCell>
                <mxCell id="7" value="読み込み" style="text;html=1;align=center;verticalAlign=middle;whiteSpace=wrap;rounded=0;" vertex="1" parent="WIyWlLk6GJQsqaUBKTNV-1">
                    <mxGeometry x="100" y="20" width="60" height="30" as="geometry"/>
                </mxCell>
            </root>
        </mxGraphModel>
    </diagram>
</mxfile>
